<?xml version="1.0" standalone="no"?>
<!DOCTYPE svg PUBLIC "-//W3C//DTD SVG 20010904//EN"
 "http://www.w3.org/TR/2001/REC-SVG-20010904/DTD/svg10.dtd">
<svg version="1.0" xmlns="http://www.w3.org/2000/svg"
 width="225.000000pt" height="225.000000pt" viewBox="0 0 225.000000 225.000000"
 preserveAspectRatio="xMidYMid meet">

<g transform="translate(0.000000,225.000000) scale(0.100000,-0.100000)"
fill="#000000" stroke="none">
<path d="M1670 1855 c0 -8 6 -15 13 -15 7 0 32 -16 54 -35 53 -45 77 -106 71
-180 -3 -39 -1 -55 8 -55 6 0 14 10 18 23 24 91 -30 214 -114 257 -47 24 -50
24 -50 5z"/>
<path d="M1650 1801 c0 -6 20 -31 45 -55 42 -43 45 -49 45 -101 0 -57 15 -74
26 -29 10 39 -3 93 -31 130 -27 35 -85 72 -85 55z"/>
<path d="M1630 1727 c0 -8 9 -22 19 -31 11 -10 21 -32 23 -49 4 -44 28 -48 28
-4 0 24 -9 46 -26 66 -27 33 -44 40 -44 18z"/>
<path d="M1482 1675 c-42 -53 -45 -55 -93 -55 -42 0 -54 -5 -88 -36 -80 -72
-82 -173 -5 -354 66 -156 66 -193 2 -321 -33 -67 -67 -116 -118 -172 l-72 -77
50 31 c56 34 72 32 72 -11 0 -36 42 -170 75 -241 14 -30 23 -43 19 -29 -3 14
-8 78 -11 142 -5 108 -3 125 21 200 14 46 30 90 35 98 19 29 18 4 -2 -55 -31
-91 -31 -312 1 -410 12 -38 29 -81 38 -95 l15 -25 -6 30 c-4 17 -7 68 -6 115
1 116 26 193 108 326 138 225 153 275 110 365 -14 30 -53 86 -87 124 -77 87
-95 121 -86 168 7 37 24 57 71 81 30 16 29 16 -27 10 -47 -5 -58 -4 -58 8 0
35 32 133 61 183 17 30 29 55 27 55 -2 0 -23 -25 -46 -55z"/>
<path d="M1574 1655 c-4 -9 -2 -21 4 -27 16 -16 47 -5 47 17 0 26 -42 34 -51
10z"/>
<path d="M948 680 c-15 -9 -15 -13 5 -50 12 -22 28 -40 35 -40 10 0 10 5 2 20
-12 22 -7 25 20 10 11 -6 21 -6 24 -1 3 5 0 11 -8 14 -8 3 -16 16 -18 29 -3
25 -32 34 -60 18z m42 -21 c0 -5 -7 -9 -15 -9 -15 0 -20 12 -9 23 8 8 24 -1
24 -14z"/>
<path d="M905 638 c17 -57 17 -68 1 -68 -8 0 -22 14 -31 30 -14 27 -35 41 -35
23 0 -21 42 -73 58 -73 39 0 52 37 30 85 -14 31 -33 33 -23 3z"/>
<path d="M778 603 c-22 -6 -22 -11 0 -60 16 -37 19 -39 45 -30 31 10 33 22 11
65 -15 31 -22 34 -56 25z m32 -22 c0 -6 -4 -13 -10 -16 -5 -3 -10 1 -10 9 0 9
5 16 10 16 6 0 10 -4 10 -9z m20 -41 c0 -5 -7 -10 -15 -10 -8 0 -15 5 -15 10
0 6 7 10 15 10 8 0 15 -4 15 -10z"/>
<path d="M688 569 c-21 -12 -24 -59 -6 -77 7 -7 21 -12 33 -12 44 0 61 52 27
83 -21 19 -30 20 -54 6z m42 -24 c15 -18 9 -50 -9 -50 -19 0 -36 29 -28 49 8
20 21 21 37 1z"/>
<path d="M950 523 c-118 -60 -316 -127 -495 -168 -66 -15 -129 -30 -140 -34
-26 -11 185 -25 217 -16 65 20 213 82 288 121 86 44 264 155 245 152 -5 -1
-57 -25 -115 -55z"/>
<path d="M593 495 c11 -47 32 -58 67 -35 12 8 9 10 -12 10 -22 0 -29 6 -36 32
-13 52 -31 46 -19 -7z"/>
<path d="M488 523 c-34 -9 -30 -48 7 -54 26 -5 22 -22 -7 -30 -19 -5 -20 -7
-6 -13 21 -9 58 10 58 30 0 8 -11 20 -25 26 -28 12 -33 28 -10 28 8 0 15 5 15
10 0 10 -4 11 -32 3z"/>
<path d="M550 518 c0 -32 13 -78 22 -78 11 0 0 71 -13 85 -6 5 -9 3 -9 -7z"/>
</g>
</svg>
